<svg xmlns="http://www.w3.org/2000/svg" fill="none" viewBox="0 0 261 50">
  <path fill="#fff" d="M16.367 49.633c-7.1-2.738-12.782-8.709-15.142-15.916C.297 30.883.006 28.992 0 25.745c-.008-3.979.47-6.556 1.828-9.872C5.116 7.849 11.875 2.243 20.515.373c2.155-.467 7.12-.502 9.45-.067 10.356 1.932 18.266 9.78 20.502 20.34.294 1.39.343 2.102.343 4.945 0 2.866-.046 3.543-.346 4.926-1.287 5.938-4.21 10.974-8.51 14.653-2.164 1.853-5.341 3.728-7.676 4.531-1.24.427-1.82.4-2.216-.102-.306-.39-.32-.592-.321-4.829-.002-4.64-.078-5.306-.736-6.596-.178-.345-.431-.719-.565-.83-.334-.278-.305-.473.072-.473.516 0 2.624-.454 3.703-.799 3.62-1.156 5.981-3.637 6.972-7.323.463-1.727.588-5.603.225-7.026-.327-1.285-.973-2.66-1.692-3.594l-.568-.74.256-1.26c.284-1.404.227-2.83-.175-4.359-.336-1.288-.432-1.372-1.43-1.247-1.424.178-3.828 1.192-5.427 2.287l-.524.359-1.244-.27c-2.018-.438-4.498-.643-6.36-.528-1.697.105-3.98.438-4.718.686-.323.11-.606.002-1.622-.618-1.635-.996-3.194-1.636-4.554-1.87-1.03-.176-1.13-.168-1.321.095-.61.834-.893 4.33-.476 5.897.2.749.193.8-.164 1.236-.595.73-1.386 2.228-1.748 3.313-.616 1.85-.577 5.263.088 7.82 1.15 4.416 4.805 7.252 10.156 7.88l.894.104-.3.326c-.45.489-.927 1.484-1.141 2.39l-.192.806-.983.304c-1.856.572-3.714.278-5.012-.792-.323-.266-.926-.988-1.342-1.603-.871-1.29-1.47-1.84-2.554-2.347-.74-.345-1.788-.468-2.305-.269-.43.164-.263.646.406 1.171 1.479 1.164 2.142 1.98 2.927 3.607 1.086 2.251 2.217 3.175 4.458 3.644.85.176 3.526.112 4.056-.098.252-.099.27.084.27 2.587 0 2.616-.01 2.703-.357 3.03-.463.434-1.152.424-2.347-.037Zm155.605-6.678c-4.225-.656-6.626-3.51-6.373-7.577.232-3.724 2.796-5.598 8.627-6.306 4.863-.59 5.152-.653 5.702-1.239.317-.337.345-.487.28-1.502-.11-1.669-.729-2.62-2.133-3.271-.998-.464-3.419-.444-4.658.038-1.045.407-2.192 1.376-2.618 2.21-.219.431-.386.587-.573.535a92.51 92.51 0 0 0-2.079-.487c-.998-.227-1.815-.484-1.815-.57 0-.448 1.115-2.173 1.953-3.02 1.783-1.804 4.319-2.698 7.627-2.688 3.015.009 5.252.774 6.81 2.332.864.863 1.519 2.011 1.864 3.27.129.477.203 3.226.247 9.217l.06 8.537h-4.5l-.007-1.584c-.008-1.54-.016-1.573-.271-1.198-1.421 2.094-3.509 3.2-6.26 3.315-.78.032-1.628.028-1.883-.012Zm4.58-3.92c1.718-.543 3.114-1.883 3.534-3.395.083-.3.151-1.405.151-2.456.002-1.757-.02-1.9-.269-1.797-.664.273-1.981.547-4.056.845-2.608.374-3.211.521-4.198 1.022-1.359.687-1.926 1.996-1.606 3.7.149.785 1.233 1.842 2.199 2.14 1.108.339 3.066.311 4.245-.06Zm-78.365 3.618c-3.352-.884-5.838-3.636-6.833-7.559-.307-1.213-.35-1.757-.34-4.25.01-2.432.064-3.042.35-4.087 1.21-4.416 4.18-7.21 8.124-7.642 3.219-.354 5.773.77 7.355 3.234.271.423.555.73.631.683.079-.048.139-2.588.139-5.8v-5.71l2.202.041 2.202.043.039 15.414.04 15.414h-4.483v-1.777c0-.977-.062-1.777-.139-1.777-.076 0-.357.341-.624.757-.963 1.502-2.297 2.502-4.016 3.012-1.051.31-3.474.313-4.647.004Zm5.513-3.95c1.099-.412 2.292-1.557 2.875-2.76.768-1.581.962-2.641.95-5.176-.008-2.081-.051-2.444-.422-3.564-.701-2.12-1.975-3.514-3.739-4.1-.988-.326-2.932-.244-4.013.172-1.703.655-3 2.368-3.588 4.74-.348 1.402-.347 4.38.004 5.813.575 2.36 1.974 4.217 3.658 4.865 1.19.456 3.069.46 4.275.01Zm45.977 3.892c-5.091-1.376-7.97-5.962-7.714-12.291.277-6.89 4.392-11.206 10.706-11.23 4.605-.016 8.109 2.332 9.243 6.197.479 1.627.566 1.556-1.888 1.556h-2.134l-.365-.88c-1.784-4.306-8.01-4.116-10.101.31-.677 1.43-.919 2.66-.921 4.665-.004 2.978.736 5.133 2.28 6.641 1.137 1.11 2.189 1.516 3.951 1.524 1.12.006 1.455-.057 2.279-.43 1.173-.531 2.013-1.401 2.509-2.6l.368-.886h2.134c2.454 0 2.369-.07 1.887 1.556-.794 2.677-2.758 4.707-5.473 5.654-.991.346-1.471.411-3.395.46-1.87.049-2.426.007-3.366-.246Zm73.09-.01c-3.646-.955-6.356-3.773-7.357-7.65-.909-3.522-.521-7.485 1.026-10.498.833-1.623 2.671-3.49 4.146-4.208 1.681-.822 3.169-1.154 5.139-1.151 3.129.004 5.487.918 7.442 2.882 2.293 2.303 3.325 5.14 3.316 9.116-.011 3.894-1.035 6.662-3.316 8.96-1.264 1.273-2.726 2.103-4.498 2.557-1.603.41-4.321.406-5.898-.008Zm5.408-3.91c2.392-1.062 3.733-3.824 3.733-7.676 0-3.844-1.319-6.567-3.733-7.698-.774-.363-1.076-.414-2.429-.414-1.341 0-1.658.052-2.395.4-1.652.779-2.596 1.934-3.35 4.107-.384 1.102-.422 1.416-.428 3.528-.007 2.007.04 2.474.352 3.477.788 2.534 2.129 4.005 4.188 4.589 1.09.309 2.994.162 4.062-.312Zm-104.801 3.82c-1.828-.49-3.47-1.888-4.311-3.67-.905-1.925-.942-2.368-.942-11.375v-8.202l2.201.041 2.202.044.078 7.88.077 7.881.4.85c.555 1.177 1.1 1.772 2.041 2.227 3.099 1.495 6.767-.408 7.507-3.896.113-.538.173-3.248.173-7.913v-7.093l2.202.031 2.202.033.04 11.55.039 11.55h-4.474l-.043-2.047-.043-2.047-.484.85c-.562.989-1.89 2.298-2.806 2.764-1.531.782-4.254 1.025-6.059.543Zm72.592-.126c-1.729-.609-2.721-1.5-3.484-3.128l-.422-.902-.045-7.688-.043-7.687h-3.389v-1.766c0-2.085-.091-1.997 1.978-1.916l1.344.05.042-2.824.043-2.823 2.198.042 2.198.043.078 2.756.077 2.759 2.318.023 2.318.025.043 1.815.043 1.816h-4.799v6.694c0 7.533.049 7.98.969 8.635.426.304.71.36 1.962.384l1.462.031.346 1.515c.499 2.19.505 2.154-.42 2.353-1.411.303-3.647.207-4.817-.207ZM67.128 26.982V11.529h19.315v4.018h-14.68v9.423l6.838.04 6.838.04.043 1.97.043 1.97H71.764v9.426h14.834v4.018h-19.47V26.982Zm138.644 3.901.04-11.55h4.482l.04 11.55.038 11.55h-4.638l.038-11.55Zm35.386 0 .04-11.55 2.125-.02 2.124-.02v1.913c0 1.146.061 1.913.152 1.913.083 0 .3-.291.48-.645.747-1.463 2.583-2.806 4.409-3.228 1.009-.232 3.239-.227 4.257.01 2.727.634 4.642 2.59 5.385 5.499.286 1.117.306 1.73.306 9.437v8.242h-4.481l-.002-7.61c-.001-8.102-.04-8.592-.766-9.768-.916-1.482-2.475-2.183-4.566-2.053-2.715.17-4.393 1.758-4.854 4.598-.097.595-.163 3.817-.163 7.918l-.002 6.915h-4.483l.039-11.55ZM16.004 42.075c-.14-.17-.131-.26.045-.406.324-.269.782-.136.782.226 0 .375-.564.497-.827.18Zm-1.958-.321c-.228-.17-.26-.272-.131-.405.281-.284.907-.123.907.233 0 .385-.374.467-.776.172Zm3.868.063c-.16-.255.236-.641.603-.588.499.07.428.652-.088.712-.226.026-.458-.03-.515-.124Zm-5.537-1.052c-.335-.37-.33-.649.011-.646.419.003.693.238.634.544-.078.394-.343.436-.645.102Zm-1.35-1.593c-.107-.2-.12-.38-.031-.468.185-.186.609-.022.725.28.21.548-.411.716-.694.188Zm-1.02-1.462c-.148-.385.175-.59.467-.297.139.14.253.317.253.396 0 .244-.623.16-.72-.099Zm-1.057-.995c-.117-.189.306-.376.533-.235.09.056.162.165.162.246 0 .194-.574.187-.695-.011Zm197.746-21.341c-1.673-.828-1.916-3.262-.437-4.38 1.65-1.248 4.052-.482 4.575 1.46.597 2.218-1.939 4.008-4.138 2.92Z"/>
</svg>
